# xmcd
#
# Track frame offsets: 
#        150
#        12230
#        23610
#        35342
#        44335
#        58160
#        70560
#        82157
#        94092
#        104892
#        117770
#        130497
#        144172
#        154537
#        171585
#        180497
#        189185
#        203627
#        217260
#        227417
#        238472
#        249527
#
# Disc length: 3473 seconds
#
# Revision: 3
# Processed by: cddbd v1.5.2PL0 Copyright (c) Steve Scherf et al.
# Submitted via: ExactAudioCopyFreeDBPlugin 1.0
#
DISCID=340d8f16
DTITLE=Various Artist - A Celebration of Country 'N' Pop Music - Disc
DTITLE=2
DYEAR=1996
DGENRE=Country
TTITLE0=Pat Boone - Singing The Blues
TTITLE1=Patti Page - Have I Told You Lately That I Love You?
TTITLE2=Bing Crosby - Boquet Of Roses
TTITLE3=Joni James - Hey, Good Lookin'
TTITLE4=Perry Como - Funny How Time Slips Away
TTITLE5=Connie Francis - Anytime
TTITLE6=Jo Stafford - If You've Got The Money, I've Got The Time
TTITLE7=Tony Bennett - Cold, Cold Heart
TTITLE8=Rosemary Clooney - This Ole House
TTITLE9=Joni James - Your Cheating Heart
TTITLE10=Rosemary Clooney - Half As Much
TTITLE11=Henry Mancini - Release Me (And Let Me Love Again)
TTITLE12=Glen Campbell - King Of The Road
TTITLE13=Nashville Brass - Somewhere My Love (Lara's Theme From "Docto
TTITLE13=r Zhivago"
TTITLE14=Lenny Dee - Oh, Lonesome Me
TTITLE15=Billy Vaughan and His Orchestra - Tennessee Waltz
TTITLE16=Roy Clark - In The Mood
TTITLE17=Chet Atkins and Hank Snow - Unchained Melody
TTITLE18=Lawrence Welk - Heartaches By The Number
TTITLE19=Ventures - I Walk The Line
TTITLE20=Floyd Cramer - Strangers In The Night
TTITLE21=Hank Snow - Sentimental Journey
EXTD=
EXTT0=
EXTT1=
EXTT2=
EXTT3=
EXTT4=
EXTT5=
EXTT6=
EXTT7=
EXTT8=
EXTT9=
EXTT10=
EXTT11=
EXTT12=
EXTT13=
EXTT14=
EXTT15=
EXTT16=
EXTT17=
EXTT18=
EXTT19=
EXTT20=
EXTT21=
PLAYORDER=
